# xmcd
#
# Track frame offsets: 
#        150
#        13397
#        27995
#        45412
#        60090
#        76615
#        91300
#        109417
#        126825
#        144250
#
# Disc length: 2198 seconds
#
# Revision: 4
# Processed by: cddbd v1.5.2PL0 Copyright (c) Steve Scherf et al.
# Submitted via: ExactAudioCopy v0.99pb5
#
DISCID=7408940a
DTITLE=Dog - Dog 1st
DYEAR=1998
DGENRE=Rock
TTITLE0=나쁜 10대
TTITLE1=첫사랑
TTITLE2=조금만 '慕
TTITLE3=경아의 하루
TTITLE4=집에 돌아오면
TTITLE5=질 나쁜 소녀
TTITLE6=강해져야 해
TTITLE7=다롱이
TTITLE8=나는 그를 알아요
TTITLE9=오빠
EXTD=
EXTT0=my teen age
EXTT1=fist love
EXTT2=
EXTT3=
EXTT4=
EXTT5=
EXTT6=
EXTT7=
EXTT8=
EXTT9=
PLAYORDER=
